<svg width="30" height="28" viewBox="0 0 30 28" fill="none" xmlns="http://www.w3.org/2000/svg">
<path d="M14.5754 23.5024C12.7731 24.3438 10.404 24.8552 7.81017 24.8552C6.36782 24.8552 4.99582 24.6969 3.75102 24.4128C2.95137 24.2288 2.55087 24.1382 2.07189 23.7581C1.75843 23.4898 1.49898 23.1643 1.30741 22.7989C1.04492 22.2483 1.04492 21.7126 1.04492 20.6425V6.07007C1.04492 4.73755 2.45209 3.82305 3.75102 4.12067C4.99582 4.40476 6.36782 4.56304 7.81017 4.56304C10.404 4.56304 12.7731 4.05168 14.5754 3.21023C16.3777 2.36878 18.7469 1.85742 21.3407 1.85742C22.783 1.85742 24.155 2.0157 25.3998 2.29979C26.1995 2.48377 26.6 2.57576 27.0789 2.95455C27.3522 3.171 27.6932 3.59849 27.8434 3.91369C28.1059 4.46564 28.1059 5 28.1059 6.07007V13.3563M23.3702 26.208V16.7383M18.6346 21.4732H28.1059" stroke="#D2D2D2" stroke-width="2.02957" stroke-linecap="round" stroke-linejoin="round"/>
<path d="M5.78058 14.7097V14.7219M17.958 13.3569C17.958 14.2538 17.6016 15.1141 16.9673 15.7483C16.3329 16.3826 15.4725 16.7389 14.5754 16.7389C13.6783 16.7389 12.8179 16.3826 12.1835 15.7483C11.5492 15.1141 11.1928 14.2538 11.1928 13.3569C11.1928 12.4599 11.5492 11.5997 12.1835 10.9654C12.8179 10.3312 13.6783 9.97485 14.5754 9.97485C15.4725 9.97485 16.3329 10.3312 16.9673 10.9654C17.6016 11.5997 17.958 12.4599 17.958 13.3569Z" stroke="#D2D2D2" stroke-width="2.02957" stroke-linecap="round" stroke-linejoin="round"/>
</svg>
