<svg width="29" height="27" viewBox="0 0 29 27" fill="none" xmlns="http://www.w3.org/2000/svg">
<path d="M1.85205 13.1309C1.85205 8.35765 1.85205 5.97038 3.33582 4.48814C4.81958 3.0059 7.20601 3.00464 11.9801 3.00464H17.0442C21.8183 3.00464 24.206 3.00464 25.6885 4.48814C27.171 5.97164 27.1723 8.35765 27.1723 13.1309V15.6625C27.1723 20.4358 27.1723 22.8231 25.6885 24.3053C24.2047 25.7875 21.8183 25.7888 17.0442 25.7888H11.9801C7.20601 25.7888 4.81831 25.7888 3.33582 24.3053C1.85332 22.8218 1.85205 20.4358 1.85205 15.6625V13.1309Z" stroke="#D2D2D2" stroke-width="1.89902"/>
<path d="M8.18234 3.00439V1.10571M20.8424 3.00439V1.10571M2.48529 9.33333H26.5395" stroke="#D2D2D2" stroke-width="1.89902" stroke-linecap="round"/>
<path d="M22.108 19.4595C22.108 19.7953 21.9746 20.1172 21.7372 20.3546C21.4998 20.592 21.1778 20.7253 20.842 20.7253C20.5062 20.7253 20.1842 20.592 19.9468 20.3546C19.7094 20.1172 19.576 19.7953 19.576 19.4595C19.576 19.1238 19.7094 18.8019 19.9468 18.5645C20.1842 18.3271 20.5062 18.1938 20.842 18.1938C21.1778 18.1938 21.4998 18.3271 21.7372 18.5645C21.9746 18.8019 22.108 19.1238 22.108 19.4595ZM22.108 14.3964C22.108 14.7321 21.9746 15.0541 21.7372 15.2914C21.4998 15.5288 21.1778 15.6622 20.842 15.6622C20.5062 15.6622 20.1842 15.5288 19.9468 15.2914C19.7094 15.0541 19.576 14.7321 19.576 14.3964C19.576 14.0607 19.7094 13.7387 19.9468 13.5014C20.1842 13.264 20.5062 13.1306 20.842 13.1306C21.1778 13.1306 21.4998 13.264 21.7372 13.5014C21.9746 13.7387 22.108 14.0607 22.108 14.3964ZM15.778 19.4595C15.778 19.7953 15.6446 20.1172 15.4072 20.3546C15.1697 20.592 14.8477 20.7253 14.512 20.7253C14.1762 20.7253 13.8542 20.592 13.6168 20.3546C13.3793 20.1172 13.2459 19.7953 13.2459 19.4595C13.2459 19.1238 13.3793 18.8019 13.6168 18.5645C13.8542 18.3271 14.1762 18.1938 14.512 18.1938C14.8477 18.1938 15.1697 18.3271 15.4072 18.5645C15.6446 18.8019 15.778 19.1238 15.778 19.4595ZM15.778 14.3964C15.778 14.7321 15.6446 15.0541 15.4072 15.2914C15.1697 15.5288 14.8477 15.6622 14.512 15.6622C14.1762 15.6622 13.8542 15.5288 13.6168 15.2914C13.3793 15.0541 13.2459 14.7321 13.2459 14.3964C13.2459 14.0607 13.3793 13.7387 13.6168 13.5014C13.8542 13.264 14.1762 13.1306 14.512 13.1306C14.8477 13.1306 15.1697 13.264 15.4072 13.5014C15.6446 13.7387 15.778 14.0607 15.778 14.3964ZM9.44791 19.4595C9.44791 19.7953 9.31453 20.1172 9.07711 20.3546C8.83969 20.592 8.51767 20.7253 8.1819 20.7253C7.84614 20.7253 7.52412 20.592 7.2867 20.3546C7.04928 20.1172 6.91589 19.7953 6.91589 19.4595C6.91589 19.1238 7.04928 18.8019 7.2867 18.5645C7.52412 18.3271 7.84614 18.1938 8.1819 18.1938C8.51767 18.1938 8.83969 18.3271 9.07711 18.5645C9.31453 18.8019 9.44791 19.1238 9.44791 19.4595ZM9.44791 14.3964C9.44791 14.7321 9.31453 15.0541 9.07711 15.2914C8.83969 15.5288 8.51767 15.6622 8.1819 15.6622C7.84614 15.6622 7.52412 15.5288 7.2867 15.2914C7.04928 15.0541 6.91589 14.7321 6.91589 14.3964C6.91589 14.0607 7.04928 13.7387 7.2867 13.5014C7.52412 13.264 7.84614 13.1306 8.1819 13.1306C8.51767 13.1306 8.83969 13.264 9.07711 13.5014C9.31453 13.7387 9.44791 14.0607 9.44791 14.3964Z" fill="#D2D2D2"/>
</svg>
