<svg width="38" height="38" viewBox="0 0 38 38" fill="none" xmlns="http://www.w3.org/2000/svg">
<path d="M17.5371 29.4875C17.5371 29.8271 17.672 30.1528 17.9122 30.3929C18.1524 30.6331 18.4782 30.768 18.8178 30.768C19.1575 30.768 19.4833 30.6331 19.7235 30.3929C19.9636 30.1528 20.0986 29.8271 20.0986 29.4875V24.3655C20.0986 24.0259 19.9636 23.7002 19.7235 23.46C19.4833 23.2199 19.1575 23.085 18.8178 23.085C18.4782 23.085 18.1524 23.2199 17.9122 23.46C17.672 23.7002 17.5371 24.0259 17.5371 24.3655V29.4875Z" fill="#D2D2D2"/>
<path fill-rule="evenodd" clip-rule="evenodd" d="M18.8181 0.890137C17.6091 0.890137 16.5111 1.23673 15.3174 1.81552C14.1665 2.37552 12.8345 3.20188 11.173 4.23311L7.64328 6.42363C6.07225 7.40023 4.8103 8.18219 3.84036 8.92488C2.83456 9.69318 2.06271 10.4786 1.50431 11.4978C0.947615 12.5137 0.6983 13.5962 0.577057 14.875C0.460937 16.1128 0.460938 17.6289 0.460938 19.5292V22.2831C0.460938 25.5339 0.460938 28.1 0.722207 30.1061C0.988599 32.1635 1.55212 33.8247 2.82261 35.1377C4.09822 36.4575 5.72048 37.0482 7.73208 37.3265C9.67879 37.598 12.1685 37.598 15.3038 37.598H22.3324C25.4677 37.598 27.9574 37.598 29.9041 37.3265C31.914 37.0482 33.538 36.4575 34.8153 35.1377C36.0841 33.8247 36.6476 32.1635 36.9157 30.1061C37.1752 28.1 37.1752 25.5339 37.1752 22.2831V19.5292C37.1752 17.6289 37.1752 16.1145 37.0591 14.875C36.9396 13.5945 36.6886 12.5137 36.1319 11.4978C35.5735 10.4786 34.7999 9.69489 33.7958 8.92488C32.8259 8.18048 31.5656 7.40023 29.9929 6.42363L26.4632 4.23311C24.8017 3.20188 23.4697 2.37552 22.3171 1.81552C21.1268 1.23502 20.0288 0.890137 18.8181 0.890137ZM12.4657 6.44582C14.1989 5.3702 15.4199 4.61555 16.4393 4.11872C17.4315 3.63554 18.135 3.45115 18.8181 3.45115C19.5011 3.45115 20.2047 3.63554 21.1968 4.11872C22.218 4.61385 23.4373 5.3702 25.1705 6.44582L28.5858 8.56463C30.2268 9.58391 31.3795 10.2993 32.2402 10.9583C33.0752 11.5986 33.555 12.1261 33.8846 12.7271C34.2142 13.3298 34.4072 14.035 34.5079 15.114C34.6121 16.2203 34.6138 17.6152 34.6138 19.5923V22.1892C34.6138 25.5527 34.6104 27.9532 34.3747 29.7749C34.1425 31.5642 33.7036 32.6023 32.9744 33.3586C32.2487 34.1082 31.2617 34.5538 29.5523 34.7911C27.8003 35.0335 25.4899 35.0369 22.2334 35.0369H15.4028C12.1446 35.0369 9.83589 35.0335 8.08385 34.7911C6.3745 34.5521 5.38749 34.1082 4.66345 33.3569C3.93257 32.6023 3.49371 31.5642 3.26318 29.7749C3.02411 27.9532 3.0224 25.5544 3.0224 22.1892V19.5923C3.0224 17.6152 3.0224 16.2203 3.12827 15.114C3.22903 14.035 3.42199 13.3298 3.75156 12.7271C4.08114 12.1261 4.56099 11.5986 5.39773 10.9583C6.25668 10.2993 7.40933 9.58391 9.05038 8.56463L12.4657 6.44582Z" fill="#D2D2D2"/>
</svg>
