<svg width="22" height="22" viewBox="0 0 22 22" fill="none" xmlns="http://www.w3.org/2000/svg">
<path d="M21 10.5V4.114C21 3.323 21 2.928 20.806 2.52C20.6645 2.24956 20.4728 2.00859 20.241 1.81C19.887 1.53 19.591 1.463 19 1.327C18.08 1.117 17.066 1 16 1C14.083 1 12.332 1.378 11 2C9.668 2.622 7.917 3 6 3C4.934 3 3.92 2.883 3 2.673C2.04 2.453 1 3.129 1 4.114V14.886C1 15.677 1 16.073 1.194 16.48C1.304 16.713 1.557 17.03 1.759 17.19C2.113 17.47 2.409 17.537 3 17.673C3.92 17.883 4.934 18 6 18C7.469 18 8.84 17.778 10 17.395" stroke="#D2D2D2" stroke-width="1.5" stroke-linecap="round" stroke-linejoin="round"/>
<path d="M4.5 10.5V10.509M17.5 8.492V8.502M18.333 13L19.157 13.758C19.336 13.934 19.425 14.022 19.394 14.097C19.363 14.172 19.235 14.172 18.982 14.172H15.878C14.288 14.172 13 15.438 13 17C13 17.352 13.066 17.69 13.185 18M15.667 21L14.843 20.242C14.664 20.066 14.575 19.978 14.606 19.903C14.637 19.828 14.765 19.828 15.018 19.828H18.122C19.712 19.828 21 18.562 21 17C21 16.648 20.934 16.31 20.815 16M13.5 9.5C13.5 10.163 13.2366 10.7989 12.7678 11.2678C12.2989 11.7366 11.663 12 11 12C10.337 12 9.70107 11.7366 9.23223 11.2678C8.76339 10.7989 8.5 10.163 8.5 9.5C8.5 8.83696 8.76339 8.20107 9.23223 7.73223C9.70107 7.26339 10.337 7 11 7C11.663 7 12.2989 7.26339 12.7678 7.73223C13.2366 8.20107 13.5 8.83696 13.5 9.5Z" stroke="#D2D2D2" stroke-width="1.5" stroke-linecap="round" stroke-linejoin="round"/>
</svg>
