<svg width="22" height="22" viewBox="0 0 22 22" fill="none" xmlns="http://www.w3.org/2000/svg">
<path d="M12.768 12.7679C12.2991 13.2368 11.6631 13.5003 11 13.5003C10.3369 13.5003 9.7009 13.2368 9.232 12.7679C8.7631 12.299 8.49967 11.6631 8.49967 10.9999C8.49967 10.3368 8.7631 9.70084 9.232 9.23193M18 10.1419C17.6681 10.0943 17.3345 10.0586 17 10.0349M5 11.9649C4.65867 11.9409 4.32533 11.9053 4 11.8579" stroke="#D2D2D2" stroke-width="1.5" stroke-linecap="round" stroke-linejoin="round"/>
<path d="M17 17.548H15.546C13.686 17.548 11.989 17.917 10.697 18.524C9.405 19.131 7.707 19.5 5.848 19.5C4.815 19.5 3.831 19.386 2.939 19.18C2.366 19.048 2.079 18.982 1.736 18.709C1.51037 18.5159 1.32428 18.2809 1.188 18.017C1 17.619 1 17.233 1 16.46V5.947C1 4.987 2.009 4.326 2.94 4.541C3.375 4.641 3.919 4.806 4.394 4.86M21 16.5V5.614C21 4.12 20.582 3.19 19 2.827C18.08 2.617 17.066 2.5 16 2.5C14.083 2.5 12.333 2.878 11 3.5C10.28 3.836 9.424 4.328 8.5 4.5M1 1L21 21" stroke="#D2D2D2" stroke-width="1.5" stroke-linecap="round" stroke-linejoin="round"/>
</svg>
