<svg width="30" height="26" viewBox="0 0 30 26" fill="none" xmlns="http://www.w3.org/2000/svg">
<path d="M15.4251 23.5024C13.6229 24.3438 11.2537 24.8552 8.6599 24.8552C7.21755 24.8552 5.84556 24.6969 4.60075 24.4128C3.8011 24.2288 3.4006 24.1382 2.92162 23.7581C2.60816 23.4898 2.34871 23.1643 2.15714 22.7989C1.89465 22.2483 1.89465 21.7126 1.89465 20.6425V6.07007C1.89465 4.73755 3.30182 3.82305 4.60075 4.12067C5.84556 4.40476 7.21755 4.56304 8.6599 4.56304C11.2537 4.56304 13.6229 4.05168 15.4251 3.21023C17.2274 2.36878 19.5966 1.85742 22.1904 1.85742C23.6327 1.85742 25.0047 2.0157 26.2495 2.29979C27.0492 2.48377 27.4497 2.57576 27.9287 2.95455C28.202 3.171 28.5429 3.59849 28.6931 3.91369C28.9556 4.46564 28.9556 5 28.9556 6.07007V14.0327M19.4843 22.1496H28.9556" stroke="#D2D2D2" stroke-width="2.02957" stroke-linecap="round" stroke-linejoin="round"/>
<path d="M6.63 15.386V15.3981M24.2196 12.6695V12.683M18.8074 14.0331C18.8074 14.9301 18.4511 15.7903 17.8167 16.4246C17.1823 17.0589 16.322 17.4152 15.4248 17.4152C14.5277 17.4152 13.6673 17.0589 13.0329 16.4246C12.3986 15.7903 12.0422 14.9301 12.0422 14.0331C12.0422 13.1362 12.3986 12.2759 13.0329 11.6417C13.6673 11.0074 14.5277 10.6511 15.4248 10.6511C16.322 10.6511 17.1823 11.0074 17.8167 11.6417C18.4511 12.2759 18.8074 13.1362 18.8074 14.0331Z" stroke="#D2D2D2" stroke-width="2.02957" stroke-linecap="round" stroke-linejoin="round"/>
</svg>
