<svg width="23" height="29" viewBox="0 0 23 29" fill="none" xmlns="http://www.w3.org/2000/svg">
<path fill-rule="evenodd" clip-rule="evenodd" d="M11.5581 0.906738C9.96324 0.906738 8.43367 1.54019 7.30591 2.66775C6.17815 3.79531 5.54458 5.32461 5.54458 6.91923C5.54458 8.51384 6.17815 10.0431 7.30591 11.1707C8.43367 12.2983 9.96324 12.9317 11.5581 12.9317C13.153 12.9317 14.6826 12.2983 15.8104 11.1707C16.9381 10.0431 17.5717 8.51384 17.5717 6.91923C17.5717 5.32461 16.9381 3.79531 15.8104 2.66775C14.6826 1.54019 13.153 0.906738 11.5581 0.906738ZM7.4436 6.91923C7.4436 5.82818 7.87709 4.78181 8.64872 4.01032C9.42034 3.23884 10.4669 2.80542 11.5581 2.80542C12.6494 2.80542 13.6959 3.23884 14.4675 4.01032C15.2392 4.78181 15.6727 5.82818 15.6727 6.91923C15.6727 8.01027 15.2392 9.05664 14.4675 9.82813C13.6959 10.5996 12.6494 11.033 11.5581 11.033C10.4669 11.033 9.42034 10.5996 8.64872 9.82813C7.87709 9.05664 7.4436 8.01027 7.4436 6.91923ZM11.5581 14.8304C8.62985 14.8304 5.93071 15.4962 3.93168 16.6202C1.96177 17.729 0.48054 19.4075 0.48054 21.4758V21.6049C0.479274 23.0757 0.478007 24.9212 2.09724 26.2402C2.89356 26.8883 4.00891 27.3503 5.51546 27.6541C7.02455 27.9604 8.9932 28.1212 11.5581 28.1212C14.1231 28.1212 16.0905 27.9604 17.6021 27.6541C19.1086 27.3503 20.2227 26.8883 21.0203 26.2402C22.6395 24.9212 22.637 23.0757 22.6357 21.6049V21.4758C22.6357 19.4075 21.1545 17.729 19.1858 16.6202C17.1855 15.4962 14.4877 14.8304 11.5581 14.8304ZM2.37956 21.4758C2.37956 20.3986 3.16701 19.229 4.8622 18.2759C6.52827 17.3392 8.89318 16.7291 11.5594 16.7291C14.2231 16.7291 16.588 17.3392 18.2541 18.2759C19.9505 19.229 20.7367 20.3986 20.7367 21.4758C20.7367 23.1314 20.6861 24.063 19.8201 24.7668C19.3517 25.1491 18.5668 25.5225 17.2248 25.7934C15.8866 26.0642 14.0572 26.2225 11.5581 26.2225C9.05903 26.2225 7.22838 26.0642 5.89147 25.7934C4.5495 25.5225 3.76457 25.1491 3.29615 24.7681C2.4302 24.063 2.37956 23.1314 2.37956 21.4758Z" fill="#D2D2D2"/>
</svg>
