<svg width="28" height="23" viewBox="0 0 28 23" fill="none" xmlns="http://www.w3.org/2000/svg">
<path d="M23.1468 11.5189C23.1468 11.8547 23.0134 12.1767 22.776 12.4141C22.5385 12.6516 22.2165 12.785 21.8808 12.785C21.545 12.785 21.223 12.6516 20.9856 12.4141C20.7481 12.1767 20.6147 11.8547 20.6147 11.5189C20.6147 11.1832 20.7481 10.8612 20.9856 10.6237C21.223 10.3863 21.545 10.2529 21.8808 10.2529C22.2165 10.2529 22.5385 10.3863 22.776 10.6237C23.0134 10.8612 23.1468 11.1832 23.1468 11.5189Z" fill="#D2D2D2"/>
<path fill-rule="evenodd" clip-rule="evenodd" d="M11.682 0.442871H15.6218C17.9487 0.442871 19.7921 0.442871 21.234 0.636537C22.7178 0.836531 23.9192 1.25677 24.8675 2.20358C26.0373 3.37443 26.4108 4.94148 26.5462 6.9756C27.2767 7.29584 27.8287 7.97557 27.8882 8.8363C27.8945 8.91352 27.8945 8.99579 27.8945 9.07174V13.9653C27.8945 14.0412 27.8945 14.1235 27.8895 14.1994C27.8287 15.0602 27.2767 15.7412 26.5462 16.0627C26.4108 18.0955 26.0373 19.6626 24.8675 20.8334C23.9192 21.7802 22.7178 22.2005 21.234 22.4005C19.7908 22.5941 17.9487 22.5941 15.6218 22.5941H11.682C9.35506 22.5941 7.51175 22.5941 6.06976 22.4005C4.586 22.2005 3.38456 21.7802 2.43631 20.8334C1.48934 19.8854 1.06902 18.6841 0.868993 17.2006C0.675293 15.7576 0.675293 13.9159 0.675293 11.5894V11.4476C0.675293 9.12111 0.675293 7.27812 0.868993 5.83639C1.06902 4.35289 1.48934 3.15165 2.43631 2.20358C3.38456 1.25677 4.586 0.836531 6.06976 0.636537C7.51302 0.442871 9.35506 0.442871 11.682 0.442871ZM24.6257 16.2652H22.1722C19.4566 16.2652 17.1322 14.2045 17.1322 11.5185C17.1322 8.83251 19.4566 6.7718 22.1709 6.7718H24.6244C24.4801 5.07438 24.1547 4.17694 23.523 3.54658C22.9875 3.01115 22.2532 2.68964 20.9796 2.51876C19.6794 2.34408 17.9639 2.34155 15.5497 2.34155H11.7516C9.33734 2.34155 7.62316 2.34408 6.32043 2.51876C5.04809 2.68964 4.31381 3.01115 3.77829 3.54658C3.24276 4.08201 2.92246 4.81616 2.75155 6.08828C2.57684 7.38951 2.57431 9.10338 2.57431 11.5172C2.57431 13.9311 2.57684 15.6462 2.75155 16.9475C2.92246 18.2196 3.24403 18.9537 3.77955 19.4892C4.31507 20.0246 5.04936 20.3461 6.32297 20.517C7.62443 20.6917 9.3386 20.6942 11.7529 20.6942H15.5509C17.9652 20.6942 19.6806 20.6917 20.9821 20.517C22.2544 20.3461 22.9887 20.0246 23.5243 19.4892C24.156 18.8588 24.4814 17.9626 24.6257 16.2639M5.73934 6.45536C5.73934 6.20358 5.83937 5.96211 6.01744 5.78407C6.19551 5.60604 6.43702 5.50602 6.68884 5.50602H11.7529C12.0047 5.50602 12.2462 5.60604 12.4243 5.78407C12.6024 5.96211 12.7024 6.20358 12.7024 6.45536C12.7024 6.70714 12.6024 6.94861 12.4243 7.12664C12.2462 7.30468 12.0047 7.4047 11.7529 7.4047H6.68884C6.43702 7.4047 6.19551 7.30468 6.01744 7.12664C5.83937 6.94861 5.73934 6.70714 5.73934 6.45536ZM25.5828 8.67049H22.1722C20.3694 8.67049 19.0312 10.011 19.0312 11.5185C19.0312 13.0261 20.3694 14.3665 22.1709 14.3665H25.6119C25.8727 14.3501 25.9854 14.1741 25.9942 14.0678V8.96921C25.9854 8.86288 25.8727 8.68694 25.6119 8.67175L25.5828 8.67049Z" fill="#D2D2D2"/>
</svg>
